<svg xmlns="http://www.w3.org/2000/svg" viewBox="0 0 512 512" fill="#6366F1">
  <path d="M256 8C119 8 8 119 8 256s111 248 248 248 248-111 248-248S393 8 256 8zm115.8 144H310.4c-2.7-10.9-5.8-21.3-9.4-31.1 33.7 8.1 63.4 24.8 91.4 47.6-15.3-8.9-32-15.2-50.4-16.5zM256 48c33.1 0 64.1 7.6 92.2 21.2-9.8 14.4-19.3 29.5-28.4 45.1H192.2C181.1 84.7 169 66.6 156 48 192 48 224 48 256 48zM48 256c0-33.5 6.2-65.4 17.2-95h66.7c-4.7 19.5-7.2 39.7-7.2 60s2.5 40.5 7.2 60H65.2c-11-29.6-17.2-61.5-17.2-95zm160 160c-33.1 0-64.1-7.6-92.2-21.2 9.8-14.4 19.3-29.5 28.4-45.1h136.8c11.1 19.3 23.2 37.4 36.2 56.4C320 408 288 408 208 408zm240-152c0 33.5-6.2 65.4-17.2 95h-66.7c4.7-19.5 7.2-39.7 7.2-60s-2.5-40.5-7.2-60h66.7c11 29.6 17.2 61.5 17.2 95z"></path>
</svg>
